<svg width="22" height="20" viewBox="0 0 22 20" fill="none" xmlns="http://www.w3.org/2000/svg">
<path d="M8.20376 2.25722C7.88461 1.4979 7.11184 1 6.25251 1H3.36205C2.26247 1 1.37109 1.8481 1.37109 2.89453C1.37109 11.7892 8.94804 19 18.2944 19C19.394 19 20.2852 18.1516 20.2852 17.1052L20.2856 14.354C20.2856 13.5361 19.7626 12.8009 18.9647 12.4971L16.1944 11.4429C15.4777 11.1701 14.6617 11.2929 14.0687 11.7632L13.3537 12.3307C12.5187 12.9929 11.2901 12.9402 10.5215 12.2088L8.50823 10.2911C7.73965 9.55962 7.68286 8.39134 8.3787 7.59668L8.97489 6.9163C9.46906 6.35195 9.59923 5.57516 9.31254 4.89309L8.20376 2.25722Z" stroke="#0740A3" stroke-width="2" stroke-linecap="round" stroke-linejoin="round"/>
</svg>
