<svg width="788" height="889" viewBox="0 0 788 889" fill="none" xmlns="http://www.w3.org/2000/svg">
<path d="M36.1229 888C36.1229 867.374 35.3248 846.314 37.7957 825.893C46.1495 756.85 80.3514 700.741 114.64 652.691C193.805 541.753 299.071 501.019 398.911 439.543C432.232 419.026 465.812 399.032 497.815 374.666C543.626 339.785 584.058 293.354 622.857 245.056C683.431 169.652 736.67 89.4933 787 1" stroke="#0740A3" stroke-opacity="0.05" stroke-width="2" stroke-linecap="round"/>
<path d="M1.12292 888C1.12292 867.374 0.32485 846.314 2.79572 825.893C11.1495 756.85 45.3514 700.741 79.6399 652.691C158.805 541.753 264.071 501.019 363.911 439.543C397.232 419.026 430.812 399.032 462.815 374.666C508.626 339.785 549.058 293.354 587.857 245.056C648.431 169.652 701.67 89.4933 752 1" stroke="#0740A3" stroke-opacity="0.05" stroke-width="2" stroke-linecap="round"/>
</svg>
