<svg width="25" height="19" viewBox="0 0 25 19" fill="none" xmlns="http://www.w3.org/2000/svg">
<path d="M3.04312 2.54561L10.3654 7.86738L10.3679 7.86933C11.1809 8.44316 11.5877 8.73024 12.0332 8.84115C12.427 8.93918 12.841 8.93918 13.2348 8.84115C13.6807 8.73015 14.0886 8.44222 14.9031 7.86738C14.9031 7.86738 19.5997 4.39859 22.2252 2.54561M1.84424 13.8534V5.08426C1.84424 3.79185 1.84424 3.14517 2.10558 2.65153C2.33546 2.21732 2.702 1.86455 3.15317 1.6433C3.66608 1.39178 4.33801 1.39178 5.68088 1.39178H19.5879C20.9307 1.39178 21.6012 1.39178 22.1142 1.6433C22.5653 1.86455 22.9331 2.21732 23.163 2.65153C23.4241 3.14468 23.4241 3.79059 23.4241 5.08047V13.8573C23.4241 15.1471 23.4241 15.7921 23.163 16.2853C22.9331 16.7195 22.5653 17.0729 22.1142 17.2941C21.6018 17.5454 20.9316 17.5454 19.5913 17.5454H5.67695C4.3367 17.5454 3.66558 17.5454 3.15317 17.2941C2.702 17.0729 2.33546 16.7195 2.10558 16.2853C1.84424 15.7916 1.84424 15.1458 1.84424 13.8534Z" stroke="white" stroke-width="2" stroke-linecap="round" stroke-linejoin="round"/>
</svg>
