<svg width="22" height="25" viewBox="0 0 22 25" fill="none" xmlns="http://www.w3.org/2000/svg">
<path d="M1.65552 12.3598C1.65552 10.5321 1.65552 9.61823 2.02085 8.81493C2.38619 8.01164 3.07229 7.41691 4.4445 6.22745L5.7756 5.07362C8.25585 2.92367 9.49598 1.84869 10.9732 1.84869C12.4504 1.84869 13.6905 2.92367 16.1708 5.07362L17.5019 6.22745C18.8741 7.41691 19.5602 8.01164 19.9255 8.81493C20.2909 9.61823 20.2909 10.5321 20.2909 12.3598V18.0679C20.2909 20.6062 20.2909 21.8754 19.5111 22.6639C18.7314 23.4525 17.4764 23.4525 14.9665 23.4525H6.9799C4.46996 23.4525 3.21499 23.4525 2.43526 22.6639C1.65552 21.8754 1.65552 20.6062 1.65552 18.0679V12.3598Z" stroke="white" stroke-width="2"/>
</svg>
