<svg width="32" height="33" viewBox="0 0 32 33" fill="none" xmlns="http://www.w3.org/2000/svg">
<path d="M6.65552 17.3598C6.65552 15.5321 6.65552 14.6182 7.02085 13.8149C7.38619 13.0116 8.07229 12.4169 9.4445 11.2274L10.7756 10.0736C13.2559 7.92367 14.496 6.84869 15.9732 6.84869C17.4504 6.84869 18.6905 7.92367 21.1708 10.0736L22.5019 11.2274C23.8741 12.4169 24.5602 13.0116 24.9255 13.8149C25.2909 14.6182 25.2909 15.5321 25.2909 17.3598V23.0679C25.2909 25.6062 25.2909 26.8754 24.5111 27.6639C23.7314 28.4525 22.4764 28.4525 19.9665 28.4525H11.9799C9.46996 28.4525 8.21499 28.4525 7.43526 27.6639C6.65552 26.8754 6.65552 25.6062 6.65552 23.0679V17.3598Z" stroke="white" stroke-width="2"/>
<path d="M19.301 28.4525V21.3757C19.301 20.8234 18.8533 20.3757 18.301 20.3757H13.6455C13.0932 20.3757 12.6455 20.8234 12.6455 21.3757V28.4525" stroke="white" stroke-width="2" stroke-linecap="round" stroke-linejoin="round"/>
</svg>
