<svg width="857" height="843" viewBox="0 0 857 843" fill="none" xmlns="http://www.w3.org/2000/svg">
<path d="M818.749 842C818.749 822.444 819.618 802.476 816.927 783.113C807.83 717.651 770.582 664.453 733.24 618.894C647.024 513.71 532.383 475.088 423.652 416.8C387.363 397.347 350.792 378.39 315.939 355.287C266.049 322.216 222.016 278.192 179.762 232.399C113.793 160.905 55.8127 84.904 1.00008 1" stroke="#0740A3" stroke-opacity="0.05" stroke-width="2" stroke-linecap="round"/>
<path d="M856.866 842C856.866 822.444 857.735 802.476 855.044 783.113C845.947 717.651 808.699 664.453 771.357 618.894C685.141 513.71 570.5 475.088 461.769 416.8C425.48 397.347 388.909 378.39 354.056 355.287C304.166 322.216 260.133 278.192 217.879 232.399C151.909 160.905 93.9296 84.904 39.117 1" stroke="#0740A3" stroke-opacity="0.05" stroke-width="2" stroke-linecap="round"/>
</svg>
