<svg width="768" height="1378" viewBox="0 0 768 1378" fill="none" xmlns="http://www.w3.org/2000/svg">
<path d="M36.1229 0.999933C36.1229 32.9972 35.3248 65.6676 37.7957 97.3471C46.1495 204.453 80.3514 291.494 114.64 366.034C193.805 538.131 299.071 601.323 398.911 696.69C432.232 728.518 465.812 759.534 497.815 797.334C543.626 851.444 584.058 923.472 622.857 998.396C683.431 1115.37 736.67 1239.72 787 1377" stroke="#0740A3" stroke-opacity="0.05" stroke-width="2" stroke-linecap="round"/>
<path d="M1.12292 0.999933C1.12292 32.9972 0.32485 65.6676 2.79572 97.3471C11.1495 204.453 45.3514 291.494 79.6399 366.034C158.805 538.131 264.071 601.323 363.911 696.69C397.232 728.518 430.812 759.534 462.815 797.334C508.626 851.444 549.058 923.472 587.857 998.396C648.431 1115.37 701.67 1239.72 752 1377" stroke="#0740A3" stroke-opacity="0.05" stroke-width="2" stroke-linecap="round"/>
</svg>
