<svg width="94" height="32" viewBox="0 0 94 32" fill="none" xmlns="http://www.w3.org/2000/svg">
<g clip-path="url(#clip0_1_91)">
<path fill-rule="evenodd" clip-rule="evenodd" d="M3.40803 17.2902L3.39967 18.3575C11.244 14.557 18.3545 19.3382 17.904 22.8026C17.4396 26.3848 10.8827 30.2106 3.38667 26.8205V31.9631L0.0780249 31.9998L0.0325104 17.277L3.40803 17.2902ZM0 15.8445L0.0130042 1.53865C55.292 -4.57147 76.7286 8.49206 94 23.533L82.3259 23.5706V22.1975L87.94 22.1702C72.1083 5.93018 40.2202 -2.19782 1.34686 2.829L1.35615 15.8502L0 15.8445ZM77.245 21.1339C77.8413 18.9834 75.2656 18.4986 72.6071 18.4328C70.0797 18.3725 67.777 18.5551 67.0571 20.5777L63.3704 20.3029C63.7132 15.7551 81.1277 15.5659 80.7766 20.4026C80.7543 22.1194 80.7162 23.8342 80.7051 25.5509C80.6826 26.0061 80.7736 26.4598 80.9697 26.87C81.1658 27.2802 81.4607 27.6338 81.8271 27.8982L78.2138 27.8238C77.9212 27.474 77.739 27.0431 77.6909 26.5871C70.2469 29.4859 62.5419 27.7796 62.7435 25.021C62.8856 23.0577 64.9774 22.0375 68.2721 21.8944C71.2538 21.7589 74.2596 21.5594 77.245 21.1339ZM77.1521 22.6003C77.1521 23.1114 77.1744 23.6281 77.1419 24.1363C77.0276 25.9245 73.5871 26.7142 70.9185 26.7386C66.1896 26.9005 64.4609 23.7692 69.6719 23.2563C72.2189 23.005 74.5476 23.2968 77.1568 22.5975M46.1018 24.4911L42.8916 24.8186C43.8428 27.6817 49.1076 28.125 51.6555 28.0234C54.8471 27.8982 59.6354 27.741 59.9299 24.4412C60.0404 23.2102 57.6551 22.0629 52.1813 21.3871C49.5572 21.0634 46.5885 21.1048 46.8477 19.5989C47.1486 17.8558 55.7444 18.0403 55.6209 20.1796L59.3076 20.029C59.2481 18.7114 57.5473 17.0351 51.3592 16.9994C45.1711 16.9636 43.5028 18.7339 43.213 20.1052C42.887 21.6638 47.4208 23.0897 52.2073 23.3852C57.4015 23.7109 57.9793 25.8445 53.8031 26.4911C51.323 26.8742 46.6294 26.6474 46.1027 24.4958M24.6764 23.0031L40.2239 23.0784C40.5471 15.8314 21.7635 14.8271 20.9962 22.5231C20.4733 27.7466 33.8007 31.1716 39.5523 24.7951L35.7904 24.5429C33.3549 27.757 25.844 27.7626 24.6792 23.0031M24.8548 21.6394L36.1889 21.5904C35.1717 18.1222 27.0246 16.8092 24.8566 21.6394M3.19346 22.4657C3.12194 27.9772 14.4328 28.0572 14.3873 22.4168C14.3446 17.2695 3.26313 17.1189 3.19346 22.4657Z" fill="white"/>
</g>
<defs>
<clipPath id="clip0_1_91">
<rect width="94" height="32" fill="white"/>
</clipPath>
</defs>
</svg>
