<svg width="70" height="24" viewBox="0 0 70 24" fill="none" xmlns="http://www.w3.org/2000/svg">
<path fill-rule="evenodd" clip-rule="evenodd" d="M2.5379 12.9676L2.53167 13.7681C8.37319 10.9177 13.6683 14.5036 13.3328 17.102C12.9869 19.7886 8.10411 22.658 2.52199 20.1154V23.9723L0.0581037 23.9999L0.0242099 12.9578L2.5379 12.9676ZM0 11.8834L0.00968394 1.15399C41.1749 -3.4286 57.1383 6.36904 70 17.6497L61.3065 17.678V16.6481L65.4873 16.6276C53.6977 4.44763 29.9512 -1.64837 1.00298 2.12175L1.0099 11.8876L0 11.8834ZM57.5229 15.8505C57.967 14.2375 56.0488 13.874 54.0692 13.8246C52.187 13.7794 50.4722 13.9163 49.9362 15.4333L47.1908 15.2272C47.446 11.8163 60.4142 11.6745 60.1528 15.302C60.1362 16.5895 60.1078 17.8756 60.0995 19.1632C60.0828 19.5046 60.1506 19.8448 60.2966 20.1525C60.4426 20.4601 60.6622 20.7253 60.9351 20.9236L58.2443 20.8679C58.0264 20.6055 57.8907 20.2823 57.8549 19.9403C52.3115 22.1145 46.5737 20.8347 46.7238 18.7658C46.8297 17.2933 48.3874 16.5281 50.8409 16.4208C53.0613 16.3192 55.2997 16.1695 57.5229 15.8505ZM57.4537 16.9502C57.4537 17.3335 57.4703 17.721 57.4461 18.1022C57.361 19.4434 54.7989 20.0356 52.8116 20.054C49.2901 20.1754 48.0028 17.8269 51.8833 17.4422C53.78 17.2537 55.5141 17.4726 57.4572 16.9481M34.3311 18.3683L31.9406 18.614C32.6489 20.7613 36.5695 21.0937 38.4669 21.0175C40.8436 20.9236 44.4094 20.8057 44.6286 18.3309C44.711 17.4076 42.9346 16.5472 38.8584 16.0403C36.9043 15.7975 34.6936 15.8286 34.8866 14.6992C35.1107 13.3919 41.5118 13.5302 41.4198 15.1347L44.1652 15.0217C44.1209 14.0335 42.8544 12.7763 38.2462 12.7495C33.638 12.7227 32.3957 14.0505 32.1799 15.0789C31.9371 16.2479 35.3133 17.3173 38.8777 17.5389C42.7458 17.7832 43.176 19.3834 40.0661 19.8683C38.2192 20.1556 34.724 19.9855 34.3318 18.3719M18.3761 17.2523L29.954 17.3088C30.1947 11.8735 16.2068 11.1203 15.6355 16.8923C15.2461 20.81 25.1708 23.3787 29.4538 18.5963L26.6524 18.4072C24.8387 20.8178 19.2455 20.822 18.3781 17.2523M18.5089 16.2295L26.9491 16.1928C26.1917 13.5916 20.1247 12.6069 18.5102 16.2295M2.37811 16.8493C2.32485 20.9829 10.7478 21.0429 10.7139 16.8126C10.6821 12.9521 2.42999 12.8392 2.37811 16.8493Z" fill="#0740A3"/>
</svg>
