<svg width="29" height="28" viewBox="0 0 29 28" fill="none" xmlns="http://www.w3.org/2000/svg">
<path d="M11.5332 4.94256C11.1691 4.06644 10.2874 3.49194 9.30695 3.49194H6.00911C4.75456 3.49194 3.73755 4.4705 3.73755 5.67791C3.73755 15.9409 12.3824 24.2608 23.0461 24.2608C24.3006 24.2608 25.3174 23.282 25.3174 22.0746L25.3179 18.9001C25.3179 17.9565 24.7212 17.1081 23.8108 16.7577L20.65 15.5413C19.8323 15.2265 18.9013 15.3682 18.2247 15.9108L17.409 16.5656C16.4563 17.3297 15.0545 17.2689 14.1776 16.425L11.8806 14.2122C11.0037 13.3683 10.9389 12.0203 11.7328 11.1034L12.413 10.3183C12.9768 9.66718 13.1254 8.77089 12.7983 7.9839L11.5332 4.94256Z" stroke="white" stroke-width="2" stroke-linecap="round" stroke-linejoin="round"/>
</svg>
