<svg width="788" height="834" viewBox="0 0 788 834" fill="none" xmlns="http://www.w3.org/2000/svg">
<path d="M36.1229 833C36.1229 813.653 35.3248 793.899 37.7957 774.744C46.1495 709.982 80.3514 657.353 114.64 612.282C193.805 508.223 299.071 470.014 398.911 412.35C432.232 393.106 465.812 374.352 497.815 351.496C543.626 318.778 584.058 275.226 622.857 229.923C683.431 159.194 736.67 84.0061 787 1" stroke="#0740A3" stroke-opacity="0.05" stroke-width="2" stroke-linecap="round"/>
<path d="M1.12292 833C1.12292 813.653 0.32485 793.899 2.79572 774.744C11.1495 709.982 45.3514 657.353 79.6399 612.282C158.805 508.223 264.071 470.014 363.911 412.35C397.232 393.106 430.812 374.352 462.815 351.496C508.626 318.778 549.058 275.226 587.857 229.923C648.431 159.194 701.67 84.0061 752 1" stroke="#0740A3" stroke-opacity="0.05" stroke-width="2" stroke-linecap="round"/>
</svg>
