<svg width="26" height="26" viewBox="0 0 26 26" fill="none" xmlns="http://www.w3.org/2000/svg">
<path d="M10.5251 5.83679C11.5739 3.22213 12.0983 1.91479 13 1.91479C13.9018 1.91479 14.4262 3.22213 15.475 5.83679L15.5239 5.95855C16.1164 7.4357 16.4126 8.17428 17.0164 8.6232C17.6202 9.07212 18.4129 9.1431 19.9981 9.28507L20.2847 9.31074C22.8791 9.54309 24.1763 9.65927 24.4539 10.4846C24.7314 11.3099 23.7681 12.1863 21.8413 13.9393L21.1983 14.5243C20.223 15.4117 19.7353 15.8553 19.508 16.4368C19.4656 16.5453 19.4303 16.6564 19.4025 16.7695C19.2531 17.3757 19.3959 18.0194 19.6815 19.3067L19.7704 19.7074C20.2953 22.0731 20.5577 23.256 20.0995 23.7663C19.9283 23.9569 19.7057 24.0942 19.4585 24.1616C18.7969 24.3422 17.8576 23.5768 15.979 22.046C14.7454 21.0408 14.1286 20.5382 13.4205 20.4252C13.142 20.3807 12.8581 20.3807 12.5796 20.4252C11.8714 20.5382 11.2547 21.0408 10.0211 22.046C8.1425 23.5768 7.2032 24.3422 6.5416 24.1616C6.29437 24.0942 6.07183 23.9569 5.90059 23.7663C5.44236 23.256 5.7048 22.0731 6.2297 19.7074L6.31861 19.3067C6.60422 18.0194 6.74702 17.3757 6.59762 16.7695C6.56975 16.6564 6.5345 16.5453 6.4921 16.4368C6.2648 15.8553 5.77713 15.4117 4.80179 14.5243L4.15874 13.9393C2.23202 12.1863 1.26866 11.3099 1.54623 10.4846C1.8238 9.65927 3.12101 9.54309 5.71543 9.31074L6.00201 9.28507C7.58723 9.1431 8.37984 9.07212 8.98364 8.6232C9.58744 8.17428 9.8837 7.4357 10.4762 5.95855L10.5251 5.83679Z" stroke="white" stroke-width="2"/>
</svg>
