<svg width="27" height="27" viewBox="0 0 27 27" fill="none" xmlns="http://www.w3.org/2000/svg">
<circle cx="12.0001" cy="6.66665" r="5.33333" stroke="white" stroke-width="2" stroke-linecap="round"/>
<path fill-rule="evenodd" clip-rule="evenodd" d="M16.4193 17C15.0207 16.5608 13.5194 16.3333 12 16.3333C9.49351 16.3333 7.03618 16.9524 5.00777 18.1198C2.97993 19.2868 1.45737 20.9607 0.7551 22.9263C0.56929 23.4464 0.840277 24.0187 1.36037 24.2045C1.88046 24.3903 2.4527 24.1193 2.63851 23.5992C3.15171 22.1627 4.30745 20.8303 6.00535 19.8532C7.70268 18.8764 9.81033 18.3333 12 18.3333C12.0571 18.3333 12.1141 18.3337 12.1711 18.3344C12.7092 17.5298 13.6261 17 14.6667 17L16.4193 17ZM23 23.9804C23.2547 23.7328 23.3663 23.359 23.2681 23H23V23.9804Z" fill="white"/>
<path d="M20 14.6667L20 25.3334" stroke="white" stroke-width="2.5" stroke-linecap="round"/>
<path d="M25.3333 20L14.6666 20" stroke="white" stroke-width="2.5" stroke-linecap="round"/>
</svg>
